<svg version="1.1" viewBox="0 0 512 512" xmlns="http://www.w3.org/2000/svg">
 <path d="m25.994 503.12c-7.0781-2.3176-12.197-6.6249-15.596-13.124-2.6461-5.0596-2.4828-15.248 0.33022-20.595 2.3313-4.4316 7.892-9.8326 11.206-10.884 2.0567-0.65277 2.0657-0.91156 2.0657-59.351v-58.696l14.263-14.237 14.263-14.237h43.475v16h-36.538l-9.7312 9.7679-9.7312 9.7679v110.33l2.1105 0.66987c3.1674 1.0053 9.4892 7.0844 10.894 10.476l1.2382 2.9892h78.295l9.7312-9.7679 9.7312-9.7679v-36.464h16v43.526l-14.263 14.237-14.263 14.237h-42.67c-42.244 0-42.677 0.0206-43.326 2.0657-1.0524 3.3158-6.4627 8.8853-10.762 11.079-4.4027 2.2461-12.854 3.2465-16.724 1.9796zm11.552-17.578c4.9602-4.9602 1.4454-13.545-5.5455-13.545-4.1111 0-8 3.8889-8 8s3.8889 8 8 8c1.9484 0 3.9982-0.90731 5.5455-2.4546zm196.45 17.578c-6.9427-2.2732-13.918-8.1601-15.473-13.058-0.44896-1.4146-1.5053-2.0657-3.3512-2.0657-2.1359 0-5.6513-2.961-16.933-14.263l-14.237-14.263v-43.475h16v36.542l9.1148 8.9792c5.9048 5.817 9.2912 8.5048 9.6156 7.6322 1.0378-2.7908 6.7299-8.3497 10.675-10.425 5.6338-2.9638 15.539-2.9792 21.095-0.0327 8.5564 4.5379 12.933 11.747 12.933 21.305 0 9.5311-4.4418 16.874-12.81 21.177-4.3113 2.2168-12.777 3.208-16.629 1.9469zm11.552-17.578c4.9602-4.9602 1.4454-13.545-5.5454-13.545-4.1111 0-8 3.8889-8 8s3.8889 8 8 8c1.9484 0 3.9982-0.90731 5.5454-2.4546zm34.455-25.545v-44h16v88h-16zm46.237 29.737-14.237-14.263v-59.475h16v52.538l9.7679 9.7312 9.7679 9.7312h156.46v16h-163.53zm32-32l-14.237-14.263v-27.475h16v20.538l9.7679 9.7312 9.7679 9.7312h124.46v16h-131.53zm-252.24-18.614c-6.9427-2.2732-13.918-8.1601-15.473-13.058-0.44896-1.4146-1.5053-2.0657-3.3512-2.0657-2.1359 0-5.6513-2.961-16.933-14.263l-14.237-14.263v-23.001l14.263-14.237 14.263-14.237h11.475v8c0 7.6492-0.09948 8-2.2688 8-1.5393 0-5.3974 3.1404-12 9.7679-9.4215 9.4569-9.7312 9.9112-9.7312 14.271 0 4.3512 0.30723 4.8056 9.1148 13.482 5.9049 5.817 9.2912 8.5048 9.6156 7.6322 1.0378-2.7908 6.7299-8.3497 10.675-10.425 5.6338-2.9638 15.539-2.9792 21.095-0.0327 8.5564 4.5379 12.933 11.747 12.933 21.305 0 9.5311-4.4418 16.874-12.81 21.177-4.3113 2.2168-12.777 3.208-16.629 1.9469zm11.552-17.578c4.9602-4.9602 1.4454-13.545-5.5454-13.545-4.1111 0-8 3.8889-8 8s3.8889 8 8 8c1.9484 0 3.9982-0.90731 5.5454-2.4546zm98.455 6.4546v-12h16v8h16v-8h16v24h-48zm241.99 11.124c-7.0782-2.3176-12.197-6.6249-15.596-13.124-2.6461-5.0596-2.4828-15.248 0.33021-20.595 2.3313-4.4316 7.892-9.8326 11.206-10.884 1.8357-0.58262 2.0657-1.4575 2.0657-7.857v-7.2014l-9.7679-9.7312-9.7679-9.7312h-20.464v-16h27.526l14.237 14.263 14.237 14.263v10.67c0 9.905 0.14813 10.717 2.0657 11.326 3.3142 1.0519 8.8749 6.4529 11.206 10.884 2.813 5.3472 2.9764 15.535 0.33021 20.595-2.56 4.8949-6.4362 8.8407-10.98 11.177-4.3113 2.2168-12.777 3.208-16.629 1.9469zm11.552-17.578c1.5472-1.5472 2.4546-3.5971 2.4546-5.5454s-0.90731-3.9982-2.4546-5.5454c-1.5472-1.5472-3.5971-2.4546-5.5454-2.4546s-3.9982 0.90731-5.5454 2.4546c-1.5472 1.5472-2.4546 3.5971-2.4546 5.5454s0.90731 3.9982 2.4546 5.5454c1.5472 1.5472 3.5971 2.4546 5.5454 2.4546s3.9982-0.90731 5.5454-2.4546zm-317.55-37.545v-16h16v32h-16zm32 0v-16h16v32h-16zm32 0v-16h16v32h-16zm32 0v-16h16v32h-16zm32 0v-16h16v32h-16zm32 0v-16h16v32h-16zm32 0v-16h16v32h-16zm-232-32v-8h32v16h-32zm256 0v-8h32v16h-32zm-256-32v-8h32v16h-32zm256 0v-8h32v16h-32zm48 0v-8h88v16h-88zm-408-32v-8h88v16h-88zm104 0v-8h32v16h-32zm256 0v-8h32v16h-32zm48 0v-8h32v16h-32zm52-12-8.0395-12h-43.961v-16h51.961l8.0395 12 8.0395 12h19.961v16h-27.961zm-429.76-26.263-14.237-14.263v-181.34l-2.0657-0.65563c-3.3142-1.0519-8.8749-6.4529-11.206-10.884-2.813-5.3472-2.9764-15.535-0.33022-20.595 4.6783-8.9452 11.888-13.426 21.602-13.426s16.924 4.4808 21.602 13.426c2.6461 5.0596 2.4828 15.248-0.33022 20.595-2.3313 4.4316-7.892 9.8326-11.206 10.884-2.0547 0.65215-2.0657 0.94861-2.0657 55.857v55.201l9.7679 9.7312 9.7679 9.7312h36.464v16h-43.446l-6.2769-6.2211-6.2769-6.2211v40.98l9.7679 9.7312 9.7679 9.7312h36.464v16h-43.526zm-0.69161-212.19c4.9602-4.9602 1.4454-13.545-5.5455-13.545-4.1111 0-8 3.8889-8 8s3.8889 8 8 8c1.9484 0 3.9982-0.90731 5.5455-2.4545zm74.455 218.45v-8h32v16h-32zm256 0v-8h32v16h-32zm-304-32v-8h32v16h-32zm48 0v-8h32v16h-32zm256 0v-8h32v16h-32zm48 0v-8h88v16h-88zm-304-32v-8h32v16h-32zm256 0v-8h32v16h-32zm48 0v-8h88v16h-88zm-345.76-38.263-14.237-14.263v-87.001l14.263-14.237 14.263-14.237h189.34l0.65563-2.0657c1.0519-3.3142 6.4529-8.8749 10.884-11.206 5.3472-2.813 15.535-2.9764 20.595-0.33022 8.9452 4.6783 13.426 11.888 13.426 21.602s-4.4808 16.924-13.426 21.602c-5.0596 2.6461-15.248 2.4828-20.595-0.33022-4.4316-2.3313-9.8326-7.892-10.884-11.206-0.54584-1.7198-1.4816-2.0657-5.5882-2.0657h-4.9326l0.0386 6.25 0.0386 6.25 15.961 11.86 15.961 11.86v19.781h-16l-0.0357-6.25-0.0357-6.25-7.7143-5.6756-7.7143-5.6756-0.28078 11.926-0.28078 11.926h-15.938v-56h-16v56h-16v-56h-16v56h-16v-56h-92.538l-9.7312 9.7679-9.7312 9.7679v73.002l9.7679 9.7312c6.5089 6.4845 10.513 9.7312 12 9.7312 2.1235 0 2.2321 0.38937 2.2321 8v8h-11.526zm231.31-116.19c4.9602-4.9602 1.4454-13.545-5.5454-13.545-4.1111 0-8 3.8889-8 8s3.8889 8 8 8c1.9484 0 3.9982-0.90731 5.5454-2.4545zm-189.55 122.45v-8h32v16h-32zm256 0v-8h32v16h-32zm48 0v-8h30.077l8.9616-6.0258 8.9616-6.0258v-42.907c0-42.483-0.02038-42.913-2.0657-43.562-3.3142-1.0519-8.8749-6.4529-11.206-10.884-2.9638-5.6338-2.9792-15.539-0.03266-21.095 4.5379-8.5564 11.747-12.933 21.305-12.933s16.767 4.3762 21.305 12.933c2.9465 5.5557 2.9312 15.461-0.0327 21.095-2.3313 4.4316-7.892 9.8326-11.206 10.884-2.0489 0.65031-2.0657 1.0364-2.0657 47.572v46.917l-14.976 10.016-14.976 10.016h-34.048zm61.545-122.45c4.9602-4.9602 1.4454-13.545-5.5454-13.545-4.1111 0-8 3.8889-8 8s3.8889 8 8 8c1.9484 0 3.9982-0.90731 5.5454-2.4545zm-325.55 90.455v-16h16v32h-16zm32 0v-16h16v32h-16zm32 0v-16h16v32h-16zm32 0v-16h16v32h-16zm32 0v-16h16v32h-16zm32 0v-16h16v32h-16zm32 0v-16h16v32h-16zm-238.01-24.876c-11.206-3.669-17.426-11.924-17.426-23.124 0-9.5574 4.3762-16.767 12.933-21.305 5.5556-2.9465 15.461-2.9311 21.095 0.03267 4.4316 2.3313 9.8326 7.892 10.884 11.206 0.62857 1.9805 1.3544 2.0657 17.588 2.0657h16.933v24h-16v-8h-8.9326c-8.1491 0-8.9901 0.1812-9.5882 2.0657-1.0524 3.3158-6.4628 8.8853-10.762 11.079-4.4027 2.2461-12.854 3.2465-16.724 1.9796zm11.552-17.578c1.5472-1.5472 2.4546-3.5971 2.4546-5.5455s-0.90731-3.9982-2.4546-5.5455c-1.5472-1.5472-3.5971-2.4545-5.5454-2.4545s-3.9982 0.90731-5.5454 2.4545c-1.5472 1.5472-2.4546 3.5971-2.4546 5.5455s0.90731 3.9982 2.4546 5.5455c1.5472 1.5472 3.5971 2.4545 5.5454 2.4545s3.9982-0.90731 5.5454-2.4545zm300.45 17.578c-6.9427-2.2732-13.918-8.1601-15.473-13.058-0.63507-2.0009-1.3119-2.0657-21.588-2.0657h-20.933v8h-16v-24h28.933c28.361 0 28.946-0.0408 29.588-2.0657 1.0519-3.3142 6.4529-8.8749 10.884-11.206 5.6338-2.9638 15.539-2.9791 21.095-0.03267 8.5564 4.5379 12.933 11.747 12.933 21.305 0 9.5311-4.4418 16.874-12.81 21.177-4.3113 2.2168-12.777 3.208-16.629 1.9469zm11.552-17.578c4.9602-4.9602 1.4454-13.545-5.5454-13.545-4.1111 0-8 3.8889-8 8s3.8889 8 8 8c1.9484 0 3.9982-0.90731 5.5454-2.4545zm-117.55-3.3111v-13.766l12-11.969 12-11.969v-36.531h16v43.531l-12 11.969-12 11.969v20.531h-16z"/>
 <rect x="158.56" y="159.71" width="195.17" height="191.42"/>
</svg>
